# xmcd
# 
# Track frame offsets:
#     150
#     17947
#     44078
# 
# Disc length: 893
# 
# Revision: 2
# Processed by: cddbd v1.5.2PL0 Copyright (c) Steve Scherf et al.
# Submitted via: fre:ac v1.0.17
# 
DISCID=24037b03
DTITLE=坂本真綾 - あなたを保つもの
DYEAR=2015
DGENRE=
TTITLE0=あなたを保つもの
TTITLE1=まだうごく
TTITLE2=東京寒い
EXTD=
EXTT0=
EXTT1=
EXTT2=
PLAYORDER=
